<?xml version="1.0" encoding="UTF-8"?>
<svg id="Capa_1" data-name="Capa 1" xmlns="http://www.w3.org/2000/svg" viewBox="0 0 430 430">
  <defs>
    <style>
      .cls-1 {
        fill: #4a5cc7;
      }
    </style>
  </defs>
  <path class="cls-1" d="M226.08,121.04h-13.69c-.84,0-1.78,.31-1.99,1.78-.21,1.46-4.91,38.36-6.27,47.03-1.36,8.67-6.79,15.46-16.93,15.46s-11.81-10.86-11.81-14.52v-47.97c0-1.25-1.05-1.78-2.19-1.78h-12.86c-1.25,0-2.51,.31-2.51,2.3s0,39.4,0,43.16,.52,17.35-11.71,18.71c-12.23,1.36-16.62-11.71-17.04-14.95-.42-3.24-5.85-43.79-6.06-45.88s-1.25-3.34-2.93-3.34h-12.75c-.94,0-2.01,.73-1.99,1.88,.03,1.48,1.88,19.86,6.06,46.61,4.18,26.76,15.26,31.98,31.46,33.09,16.2,1.11,23.72-8.84,23.72-8.84,0,0,7,8.78,23.41,8.78,28.85,0,30.83-27.28,31.46-31.25,.63-3.97,6.17-46.51,6.38-47.87s-.63-2.4-1.78-2.4Z"/>
  <path class="cls-1" d="M312.42,232.03h-77.86c-1.36,0-1.67,.63-1.67,2.09v76.82c0,1.46,.31,2.76,1.67,2.76h77.76c1.46,0,2.09-.98,2.09-2.13v-13.38c0-1.15-1.36-2.09-2.4-2.09h-61.56v-15.26h32.82c1.25,0,1.88-.84,1.88-1.78v-12.33c0-1.46-1.36-2.19-2.72-2.19h-32.09v-15.15h62.29c1.36,0,1.78-1.05,1.78-2.19v-12.86c0-1.05-.73-2.3-1.99-2.3Z"/>
  <path class="cls-1" d="M366.38,54.94H63.62c-4.79,0-8.67,3.88-8.67,8.67v59.33c0,4.79,3.88,8.67,8.67,8.67s8.67-3.88,8.67-8.67v-50.66H357.71v48.76s-111.57-.01-112.92-.01-1.67,.63-1.67,2.09v76.82c0,1.46,.31,2.76,1.67,2.76h77.76c1.46,0,2.09-.98,2.09-2.13v-13.38c0-1.15-1.36-2.09-2.4-2.09h-61.56v-15.26h32.82c1.25,0,1.88-.84,1.88-1.78v-12.33c0-1.46-1.36-2.19-2.72-2.19h-32.09v-15.15h46.89c.05,0,.11,0,.16,0h58.77c4.79,0,8.67-3.88,8.67-8.67V63.62c0-4.79-3.88-8.67-8.67-8.67Z"/>
  <path class="cls-1" d="M366.38,233.34c-4.79,0-8.67,3.88-8.67,8.67v115.7H72.29v-108.38h45.62c-2.11,5.14-2.32,10.42-2.32,14.26v47.55c0,1.15,.52,2.55,1.99,2.55h13.06c1.36,0,2.4-.57,2.4-2.03v-21.43h32.82c1.25,0,2.19-.52,2.19-2.09v-13.27c0-1.15-.42-2.02-1.99-2.02h-32.92v-10.73c0-8.26,4.29-12.75,11.18-12.75h50.9c1.05,0,1.99-.73,1.99-2.19v-12.86c0-1.15-.84-2.3-2.19-2.3-1.26,0-131.4-.04-131.4-.04-4.79,0-8.67,3.88-8.67,8.67v125.72c0,4.79,3.88,8.67,8.67,8.67H366.38c4.79,0,8.67-3.88,8.67-8.67v-124.37c0-4.79-3.88-8.67-8.67-8.67Z"/>
</svg>