<?xml version="1.0" encoding="UTF-8"?>
<svg id="Capa_1" data-name="Capa 1" xmlns="http://www.w3.org/2000/svg" viewBox="0 0 792 430">
  <defs>
    <style>
      .cls-1 {
        fill: #666;
      }

      .cls-2 {
        fill: #4a5cc7;
      }
    </style>
  </defs>
  <g>
    <path class="cls-2" d="M210.98,121.04h-13.69c-.84,0-1.78,.31-1.99,1.78-.21,1.46-4.91,38.36-6.27,47.03-1.36,8.67-6.79,15.46-16.93,15.46s-11.81-10.86-11.81-14.52v-47.97c0-1.25-1.05-1.78-2.19-1.78h-12.86c-1.25,0-2.51,.31-2.51,2.3s0,39.4,0,43.16,.52,17.35-11.71,18.71c-12.23,1.36-16.62-11.71-17.04-14.95-.42-3.24-5.85-43.79-6.06-45.88s-1.25-3.34-2.93-3.34h-12.75c-.94,0-2.01,.73-1.99,1.88,.03,1.48,1.88,19.86,6.06,46.61,4.18,26.76,15.26,31.98,31.46,33.09,16.2,1.11,23.72-8.84,23.72-8.84,0,0,7,8.78,23.41,8.78,28.85,0,30.83-27.28,31.46-31.25,.63-3.97,6.17-46.51,6.38-47.87s-.63-2.4-1.78-2.4Z"/>
    <path class="cls-2" d="M297.33,232.03h-77.86c-1.36,0-1.67,.63-1.67,2.09v76.82c0,1.46,.31,2.76,1.67,2.76h77.76c1.46,0,2.09-.98,2.09-2.13v-13.38c0-1.15-1.36-2.09-2.4-2.09h-61.56v-15.26h32.82c1.25,0,1.88-.84,1.88-1.78v-12.33c0-1.46-1.36-2.19-2.72-2.19h-32.09v-15.15h62.29c1.36,0,1.78-1.05,1.78-2.19v-12.86c0-1.05-.73-2.3-1.99-2.3Z"/>
    <path class="cls-2" d="M351.29,54.94H48.52c-4.79,0-8.67,3.88-8.67,8.67v59.33c0,4.79,3.88,8.67,8.67,8.67s8.67-3.88,8.67-8.67v-50.66H342.62v48.76s-111.57-.01-112.92-.01-1.67,.63-1.67,2.09v76.82c0,1.46,.31,2.76,1.67,2.76h77.76c1.46,0,2.09-.98,2.09-2.13v-13.38c0-1.15-1.36-2.09-2.4-2.09h-61.56v-15.26h32.82c1.25,0,1.88-.84,1.88-1.78v-12.33c0-1.46-1.36-2.19-2.72-2.19h-32.09v-15.15h46.89c.05,0,.11,0,.16,0h58.77c4.79,0,8.67-3.88,8.67-8.67V63.62c0-4.79-3.88-8.67-8.67-8.67Z"/>
    <path class="cls-2" d="M351.29,233.34c-4.79,0-8.67,3.88-8.67,8.67v115.7H57.2v-108.38h45.62c-2.11,5.14-2.32,10.42-2.32,14.26v47.55c0,1.15,.52,2.55,1.99,2.55h13.06c1.36,0,2.4-.57,2.4-2.03v-21.43h32.82c1.25,0,2.19-.52,2.19-2.09v-13.27c0-1.15-.42-2.02-1.99-2.02h-32.92v-10.73c0-8.26,4.29-12.75,11.18-12.75h50.9c1.05,0,1.99-.73,1.99-2.19v-12.86c0-1.15-.84-2.3-2.19-2.3-1.26,0-131.4-.04-131.4-.04-4.79,0-8.67,3.88-8.67,8.67v125.72c0,4.79,3.88,8.67,8.67,8.67H351.29c4.79,0,8.67-3.88,8.67-8.67v-124.37c0-4.79-3.88-8.67-8.67-8.67Z"/>
  </g>
  <g>
    <path class="cls-1" d="M474.3,84.99l-10.44,31.92h-7.93l-7.02-21.61-7.25,21.61h-7.89l-10.49-31.92h7.66l7.2,22.43,7.52-22.43h6.84l7.3,22.62,7.43-22.62h7.07Z"/>
    <path class="cls-1" d="M476.06,100.95c0-9.48,7.39-16.51,17.46-16.51s17.46,6.98,17.46,16.51-7.43,16.51-17.46,16.51-17.46-7.02-17.46-16.51Zm27.45,0c0-6.06-4.29-10.21-9.99-10.21s-9.99,4.15-9.99,10.21,4.29,10.21,9.99,10.21,9.99-4.15,9.99-10.21Z"/>
    <path class="cls-1" d="M536.91,116.9l-6.16-8.89h-6.79v8.89h-7.39v-31.92h13.82c8.53,0,13.86,4.42,13.86,11.58,0,4.79-2.42,8.3-6.57,10.08l7.16,10.26h-7.93Zm-6.93-25.9h-6.02v11.13h6.02c4.51,0,6.79-2.1,6.79-5.56s-2.28-5.56-6.79-5.56Z"/>
    <path class="cls-1" d="M550.11,84.99h14.5c10.44,0,17.6,6.29,17.6,15.96s-7.16,15.96-17.6,15.96h-14.5v-31.92Zm14.13,25.85c6.34,0,10.49-3.78,10.49-9.89s-4.15-9.89-10.49-9.89h-6.75v19.79h6.75Z"/>
    <path class="cls-1" d="M450.77,187.01v5.93h-24.71v-31.92h24.12v5.93h-16.78v6.93h14.82v5.75h-14.82v7.39h17.37Z"/>
    <path class="cls-1" d="M485.72,192.94l-.05-19.15-9.39,15.78h-3.33l-9.35-15.37v18.74h-6.93v-31.92h6.11l11.95,19.84,11.77-19.84h6.06l.09,31.92h-6.93Z"/>
    <path class="cls-1" d="M529.51,184.23c0,5.52-4.38,8.71-12.77,8.71h-16.5v-31.92h15.59c7.98,0,12.08,3.33,12.08,8.3,0,3.19-1.64,5.65-4.24,7.02,3.56,1.14,5.84,3.88,5.84,7.89Zm-21.93-17.65v7.52h7.34c3.6,0,5.56-1.28,5.56-3.79s-1.96-3.74-5.56-3.74h-7.34Zm14.5,16.87c0-2.69-2.05-3.97-5.88-3.97h-8.62v7.89h8.62c3.83,0,5.88-1.18,5.88-3.92Z"/>
    <path class="cls-1" d="M559.85,187.01v5.93h-24.71v-31.92h24.12v5.93h-16.78v6.93h14.82v5.75h-14.82v7.39h17.37Z"/>
    <path class="cls-1" d="M565.75,161.02h14.5c10.44,0,17.6,6.29,17.6,15.96s-7.16,15.96-17.6,15.96h-14.5v-31.92Zm14.13,25.85c6.34,0,10.49-3.78,10.49-9.89s-4.15-9.89-10.49-9.89h-6.75v19.79h6.75Z"/>
    <path class="cls-1" d="M603.44,161.02h14.5c10.44,0,17.6,6.29,17.6,15.96s-7.16,15.96-17.6,15.96h-14.5v-31.92Zm14.14,25.85c6.34,0,10.48-3.78,10.48-9.89s-4.15-9.89-10.48-9.89h-6.75v19.79h6.75Z"/>
    <path class="cls-1" d="M641.12,161.02h7.39v31.92h-7.39v-31.92Z"/>
    <path class="cls-1" d="M685.36,161.02v31.92h-6.06l-15.92-19.38v19.38h-7.3v-31.92h6.11l15.87,19.38v-19.38h7.3Z"/>
    <path class="cls-1" d="M714.51,176.48h6.75v12.95c-3.51,2.64-8.34,4.06-12.91,4.06-10.03,0-17.42-6.89-17.42-16.51s7.39-16.51,17.55-16.51c5.61,0,10.26,1.92,13.36,5.52l-4.74,4.38c-2.32-2.46-5.02-3.6-8.25-3.6-6.2,0-10.44,4.15-10.44,10.21s4.24,10.21,10.35,10.21c2,0,3.88-.36,5.74-1.37v-9.35Z"/>
    <path class="cls-1" d="M725.61,189.79l2.51-5.56c2.69,1.96,6.71,3.33,10.53,3.33,4.38,0,6.16-1.46,6.16-3.42,0-5.97-18.56-1.87-18.56-13.72,0-5.43,4.38-9.94,13.45-9.94,4.01,0,8.12,.96,11.08,2.83l-2.28,5.61c-2.96-1.69-6.02-2.51-8.85-2.51-4.37,0-6.06,1.64-6.06,3.65,0,5.88,18.56,1.82,18.56,13.54,0,5.34-4.43,9.89-13.54,9.89-5.06,0-10.17-1.51-12.99-3.69Z"/>
    <path class="cls-1" d="M433.45,242.99v8.44h14.77v5.93h-14.77v11.63h-7.39v-31.92h24.12v5.93h-16.73Z"/>
    <path class="cls-1" d="M474.91,262.14h-14.82l-2.83,6.84h-7.57l14.23-31.92h7.3l14.27,31.92h-7.75l-2.83-6.84Zm-2.33-5.61l-5.06-12.22-5.06,12.22h10.12Z"/>
    <path class="cls-1" d="M488.84,237.06h7.39v31.92h-7.39v-31.92Z"/>
    <path class="cls-1" d="M524.13,268.98l-6.16-8.89h-6.79v8.89h-7.39v-31.92h13.82c8.53,0,13.86,4.42,13.86,11.58,0,4.79-2.42,8.3-6.57,10.08l7.16,10.26h-7.93Zm-6.93-25.9h-6.02v11.13h6.02c4.51,0,6.79-2.1,6.79-5.56s-2.28-5.56-6.79-5.56Z"/>
    <path class="cls-1" d="M566.6,237.06v31.92h-6.06l-15.91-19.38v19.38h-7.3v-31.92h6.11l15.87,19.38v-19.38h7.3Z"/>
    <path class="cls-1" d="M598.91,263.05v5.93h-24.71v-31.92h24.12v5.93h-16.78v6.93h14.82v5.75h-14.82v7.39h17.37Z"/>
    <path class="cls-1" d="M602.29,265.83l2.51-5.56c2.69,1.96,6.7,3.33,10.53,3.33,4.38,0,6.16-1.46,6.16-3.42,0-5.97-18.56-1.87-18.56-13.72,0-5.43,4.38-9.94,13.45-9.94,4.01,0,8.12,.96,11.08,2.83l-2.28,5.61c-2.96-1.69-6.02-2.51-8.84-2.51-4.38,0-6.07,1.64-6.07,3.65,0,5.88,18.56,1.82,18.56,13.54,0,5.34-4.43,9.89-13.54,9.89-5.06,0-10.17-1.51-12.99-3.69Z"/>
    <path class="cls-1" d="M631.4,265.83l2.51-5.56c2.69,1.96,6.71,3.33,10.53,3.33,4.38,0,6.16-1.46,6.16-3.42,0-5.97-18.56-1.87-18.56-13.72,0-5.43,4.38-9.94,13.45-9.94,4.01,0,8.12,.96,11.08,2.83l-2.28,5.61c-2.96-1.69-6.02-2.51-8.84-2.51-4.38,0-6.07,1.64-6.07,3.65,0,5.88,18.56,1.82,18.56,13.54,0,5.34-4.43,9.89-13.54,9.89-5.06,0-10.17-1.51-12.99-3.69Z"/>
    <path class="cls-1" d="M450.77,339.09v5.93h-24.71v-31.92h24.12v5.93h-16.78v6.93h14.82v5.75h-14.82v7.39h17.37Z"/>
    <path class="cls-1" d="M486.9,313.1l-13.82,31.92h-7.3l-13.77-31.92h7.98l9.71,22.8,9.85-22.8h7.34Z"/>
    <path class="cls-1" d="M509.53,338.18h-14.82l-2.83,6.84h-7.57l14.23-31.92h7.3l14.27,31.92h-7.75l-2.83-6.84Zm-2.33-5.61l-5.06-12.22-5.06,12.22h10.12Z"/>
    <path class="cls-1" d="M523.46,313.1h7.39v25.9h16v6.02h-23.39v-31.92Z"/>
    <path class="cls-1" d="M550.33,330.97v-17.87h7.39v17.6c0,6.06,2.65,8.57,7.11,8.57s7.11-2.51,7.11-8.57v-17.6h7.3v17.87c0,9.39-5.38,14.59-14.45,14.59s-14.46-5.2-14.46-14.59Z"/>
    <path class="cls-1" d="M606.89,338.18h-14.82l-2.83,6.84h-7.57l14.23-31.92h7.3l14.27,31.92h-7.75l-2.83-6.84Zm-2.33-5.61l-5.06-12.22-5.06,12.22h10.12Z"/>
    <path class="cls-1" d="M625.83,319.12h-10.21v-6.02h27.82v6.02h-10.21v25.9h-7.39v-25.9Z"/>
    <path class="cls-1" d="M647.42,313.1h7.39v31.92h-7.39v-31.92Z"/>
    <path class="cls-1" d="M660.37,329.05c0-9.48,7.39-16.51,17.46-16.51s17.46,6.98,17.46,16.51-7.43,16.51-17.46,16.51-17.46-7.02-17.46-16.51Zm27.45,0c0-6.06-4.28-10.21-9.98-10.21s-9.99,4.15-9.99,10.21,4.29,10.21,9.99,10.21,9.98-4.15,9.98-10.21Z"/>
    <path class="cls-1" d="M730.16,313.1v31.92h-6.07l-15.91-19.38v19.38h-7.3v-31.92h6.11l15.87,19.38v-19.38h7.3Z"/>
  </g>
</svg>